<?xml version="1.0" standalone="no"?>
<!DOCTYPE svg PUBLIC "-//W3C//DTD SVG 20010904//EN"
 "http://www.w3.org/TR/2001/REC-SVG-20010904/DTD/svg10.dtd">
<svg version="1.0" xmlns="http://www.w3.org/2000/svg"
 width="900.000000pt" height="600.000000pt" viewBox="0 0 900.000000 600.000000"
 preserveAspectRatio="xMidYMid meet">
<metadata>
Created by potrace 1.10, written by Peter Selinger 2001-2011
</metadata>
<g transform="translate(0.000000,600.000000) scale(0.100000,-0.100000)"
fill="#ffffff" stroke="none">
<path d="M2477 3930 c-46 -25 -68 -47 -104 -102 -48 -75 -88 -201 -98 -308 -4
-41 -12 -78 -18 -82 -7 -4 -42 -8 -79 -8 -58 0 -68 -3 -68 -17 0 -10 -5 -99
-10 -197 -11 -192 -18 -216 -65 -216 -13 0 -28 -7 -35 -15 -11 -13 -5 -15 48
-15 54 0 63 3 81 28 59 80 80 102 126 134 97 68 139 82 256 82 104 1 107 0
183 -38 139 -70 226 -185 256 -333 7 -35 15 -63 19 -63 3 0 7 96 9 213 2 125
9 247 17 297 8 47 16 98 17 115 2 20 11 34 28 42 22 11 18 13 -45 13 -38 0
-88 -7 -110 -14 l-40 -14 0 -80 c0 -63 -4 -84 -18 -100 -56 -61 -147 4 -117
83 13 35 43 29 50 -10 l6 -30 19 35 c43 82 0 388 -72 503 -32 51 -25 67 31 67
37 0 52 -6 82 -32 48 -42 101 -157 117 -254 15 -86 37 -113 37 -44 0 127 -89
308 -172 351 -40 20 -103 25 -113 9 -9 -15 -48 -12 -81 5 -40 21 -92 19 -137
-5z m129 -29 c88 -54 148 -198 149 -361 l0 -105 -115 -9 c-63 -6 -157 -10
-207 -10 -89 0 -93 -1 -93 -22 0 -12 8 -36 17 -52 22 -38 8 -74 -38 -97 -27
-14 -36 -15 -56 -4 -34 18 -56 65 -40 90 18 29 47 25 47 -7 0 -14 5 -24 11
-22 6 2 12 46 15 108 4 114 14 170 46 269 22 67 27 79 68 145 27 44 102 96
139 96 15 0 40 -9 57 -19z"/>
<path d="M2554 3798 c-15 -29 -36 -75 -45 -103 -23 -69 -52 -205 -46 -212 15
-14 37 9 37 39 0 60 41 186 90 278 23 42 24 50 7 50 -8 0 -27 -24 -43 -52z"/>
<path d="M4728 3473 c-17 -4 -18 -38 -18 -529 0 -492 1 -524 18 -524 9 -1 44
-2 77 -4 33 -1 66 2 73 7 9 7 12 60 12 204 0 224 8 267 57 318 44 45 69 55
141 55 71 0 98 -14 137 -68 l30 -44 3 -226 c2 -125 8 -232 13 -238 7 -9 106
-12 152 -5 5 0 7 119 5 264 -4 228 -7 268 -23 307 -27 66 -70 114 -128 146
-46 25 -63 28 -142 29 -95 0 -127 -10 -189 -62 -55 -46 -58 -38 -58 167 0 114
-4 190 -10 197 -10 13 -111 16 -150 6z"/>
<path d="M4175 3170 c-95 -15 -158 -54 -208 -130 -22 -32 -23 -140 -1 -185 32
-68 142 -122 270 -132 90 -6 143 -27 160 -61 31 -63 -34 -122 -135 -122 -74 0
-187 38 -229 78 -7 6 -19 12 -25 12 -16 0 -85 -102 -80 -117 7 -19 93 -77 143
-97 68 -27 253 -34 322 -12 116 38 176 105 185 206 14 154 -84 237 -300 254
-112 8 -157 37 -157 99 0 35 30 56 91 66 70 12 147 -1 197 -33 l40 -25 29 33
c17 18 38 44 47 58 17 25 16 26 -11 45 -53 37 -98 54 -168 63 -80 11 -100 11
-170 0z"/>
<path d="M5817 3150 c-32 -10 -65 -26 -73 -35 -9 -8 -19 -15 -23 -15 -19 0
-82 -77 -112 -138 -31 -64 -33 -73 -33 -177 0 -103 2 -114 31 -176 69 -142
179 -209 349 -209 187 0 319 94 368 264 56 193 -25 391 -194 469 -86 40 -223
48 -313 17z m219 -156 c112 -53 161 -178 116 -297 -38 -99 -105 -141 -213
-135 -58 3 -74 8 -106 34 -111 90 -119 274 -14 366 16 15 42 30 56 34 14 3 28
10 31 15 10 17 76 9 130 -17z"/>
<path d="M6794 3152 c-22 -9 -55 -29 -73 -44 -41 -36 -71 -37 -71 -4 0 51 -8
56 -79 56 -39 0 -72 -5 -79 -12 -9 -9 -12 -140 -12 -529 l0 -517 23 -6 c38
-10 135 -7 143 5 3 6 6 91 5 189 -2 122 1 180 9 185 6 4 29 -5 51 -19 61 -41
126 -59 209 -59 159 1 272 72 337 211 24 51 27 69 27 172 1 112 0 118 -33 185
-40 81 -93 135 -170 172 -73 36 -221 43 -287 15z m234 -189 c71 -54 102 -140
82 -230 -13 -58 -48 -105 -103 -140 -35 -22 -53 -26 -113 -26 -93 1 -135 25
-188 110 -22 36 -26 54 -25 110 1 79 24 130 79 174 66 53 199 54 268 2z"/>
<path d="M2432 2991 c-47 -19 -121 -79 -122 -98 0 -10 46 -13 200 -13 158 0
200 3 200 13 0 21 -61 73 -114 96 -57 25 -105 25 -164 2z"/>
<path d="M1893 2878 c2 -9 30 -13 92 -13 62 0 90 4 93 13 3 9 -20 12 -93 12
-73 0 -96 -3 -92 -12z"/>
<path d="M3297 2853 c-11 -10 -8 -121 3 -128 6 -4 124 -7 263 -6 l252 0 3 71
3 70 -259 0 c-142 0 -262 -3 -265 -7z"/>
<path d="M1775 2770 c-11 -18 22 -22 122 -16 54 3 113 5 131 6 17 0 32 5 32
10 0 14 -277 13 -285 0z"/>
<path d="M2960 2728 c0 -9 -7 -24 -16 -32 -13 -14 -57 -16 -330 -16 -237 0
-314 -3 -314 -12 0 -7 12 -29 26 -50 26 -37 94 -77 157 -92 42 -10 132 20 185
60 44 33 47 34 138 34 79 0 95 -3 102 -17 12 -23 6 -38 -34 -93 -84 -113 -182
-174 -304 -191 -139 -20 -262 23 -365 126 -57 57 -118 157 -127 210 -2 11 -10
21 -19 23 -12 2 -19 -16 -33 -85 -10 -48 -29 -135 -43 -193 -14 -58 -27 -122
-30 -142 l-5 -38 88 -1 c49 0 121 -4 159 -9 39 -6 127 -14 197 -19 70 -5 133
-13 139 -17 6 -3 45 -10 86 -15 41 -4 89 -13 106 -18 30 -9 72 -19 177 -42 24
-5 49 -14 54 -19 6 -6 28 -10 51 -10 33 1 37 3 25 13 -26 20 -42 156 -47 407
-3 129 -9 239 -14 245 -6 5 -9 3 -9 -7z"/>
<path d="M3123 2655 c0 -22 2 -30 4 -17 2 12 2 30 0 40 -3 9 -5 -1 -4 -23z"/>
<path d="M3152 2400 c0 -19 2 -27 5 -17 2 9 2 25 0 35 -3 9 -5 1 -5 -18z"/>
<path d="M4125 2215 c-26 -26 -30 -41 -19 -69 13 -33 30 -17 26 24 -4 42 2 46
61 41 21 -3 23 15 1 23 -28 11 -43 7 -69 -19z"/>
<path d="M4467 2233 c-4 -3 -7 -30 -7 -59 0 -54 17 -83 27 -45 6 25 28 28 37
5 8 -22 26 -7 26 22 0 21 -4 24 -27 22 -22 -2 -28 1 -28 17 0 16 6 19 28 17
29 -3 37 12 11 22 -21 8 -59 8 -67 -1z"/>
<path d="M4705 2230 c-3 -6 1 -13 9 -16 11 -4 16 -19 16 -49 0 -24 5 -47 10
-50 6 -4 10 11 10 38 0 27 6 49 15 57 8 7 15 16 15 21 0 12 -67 11 -75 -1z"/>
<path d="M4872 2201 c-12 -23 -22 -51 -22 -62 0 -17 4 -19 34 -14 19 4 43 2
55 -4 17 -10 21 -9 21 3 0 8 -4 18 -10 21 -5 3 -10 15 -10 25 0 10 -10 31 -23
46 l-23 27 -22 -42z m33 -34 c0 -26 -20 -25 -23 2 -3 16 1 22 10 19 7 -3 13
-12 13 -21z"/>
<path d="M5022 2217 c-30 -31 -21 -87 16 -105 35 -16 46 -15 66 7 20 22 18 56
-4 56 -11 0 -14 -9 -12 -34 3 -28 1 -33 -13 -27 -9 3 -20 6 -24 6 -13 0 -30
47 -24 68 3 15 17 23 46 28 34 5 38 8 22 15 -34 13 -51 10 -73 -14z"/>
<path d="M5568 2229 c-13 -7 -18 -23 -18 -54 0 -45 13 -67 24 -40 3 8 14 15
25 15 32 0 33 17 1 24 -36 7 -41 36 -7 36 12 0 28 4 35 9 11 7 10 10 -3 15
-23 8 -37 7 -57 -5z"/>
<path d="M5963 2232 c-6 -4 -13 -29 -14 -56 -3 -50 15 -77 50 -75 11 0 8 4 -6
11 -30 14 -29 26 2 40 l26 12 -31 13 c-37 15 -33 28 12 37 26 5 30 9 18 16
-18 12 -41 12 -57 2z"/>
<path d="M6108 2233 c-14 -3 -18 -15 -18 -54 0 -46 1 -48 19 -37 15 9 23 9 35
-1 36 -30 69 46 35 80 -19 19 -36 21 -71 12z m66 -32 c3 -5 -1 -14 -9 -21 -12
-10 -21 -10 -41 -1 -14 6 -22 16 -19 21 8 12 62 13 69 1z"/>
<path d="M6261 2226 c-7 -8 -8 -17 -4 -19 13 -8 74 7 76 18 3 16 -58 18 -72 1z"/>
<path d="M3965 2210 c9 -10 20 -34 24 -52 l7 -32 24 39 c13 22 29 43 34 47 6
4 7 10 3 15 -5 4 -11 2 -15 -4 -4 -6 -20 -15 -35 -18 -21 -6 -27 -4 -27 9 0 9
-7 16 -17 16 -15 0 -14 -2 2 -20z"/>
<path d="M4290 2181 c0 -28 5 -51 10 -51 6 0 10 20 10 44 0 25 -4 48 -10 51
-6 4 -10 -13 -10 -44z"/>
<path d="M5391 2213 c0 -10 3 -36 8 -58 7 -39 7 -39 14 -12 9 34 30 35 45 2 6
-14 18 -25 27 -25 12 0 15 12 14 53 0 41 -2 47 -9 30 -12 -30 -33 -29 -56 2
-22 29 -44 33 -43 8z"/>
<path d="M5786 2197 c-4 -21 -4 -47 0 -59 6 -19 7 -19 16 -5 12 22 57 22 74 0
12 -16 13 -10 14 40 0 36 -4 56 -10 52 -5 -3 -10 -15 -10 -26 0 -17 -6 -20
-32 -17 -25 2 -34 9 -38 28 -6 23 -7 22 -14 -13z"/>
<path d="M4380 2193 c0 -15 -3 -39 -7 -52 -4 -18 -2 -22 8 -19 16 5 23 84 8
94 -5 3 -9 -7 -9 -23z"/>
<path d="M5187 2178 c-7 -54 -2 -78 20 -78 9 0 11 5 6 13 -4 6 -10 35 -13 62
l-5 50 -8 -47z"/>
<path d="M5310 2175 c0 -27 3 -45 7 -41 7 7 5 77 -3 85 -2 2 -4 -17 -4 -44z"/>
<path d="M4223 2180 c3 -11 -1 -27 -9 -34 -22 -22 -17 -31 6 -11 21 19 28 65
9 65 -6 0 -9 -9 -6 -20z"/>
<path d="M6253 2174 c-10 -26 19 -69 47 -71 l25 -3 -22 12 c-31 15 -29 26 10
43 28 12 29 14 9 15 -13 0 -32 5 -43 10 -15 9 -21 7 -26 -6z"/>
</g>
</svg>
